<svg width="19" height="16" viewBox="0 0 19 16" fill="none" xmlns="http://www.w3.org/2000/svg">
<path fill-rule="evenodd" clip-rule="evenodd" d="M0.954545 2.08696H20.0455C20.5726 2.08696 21 1.61978 21 1.04348C21 0.467181 20.5726 0 20.0455 0H0.954545C0.427365 0 0 0.467181 0 1.04348C0 1.61978 0.427365 2.08696 0.954545 2.08696Z" fill="black"/>
<path fill-rule="evenodd" clip-rule="evenodd" d="M20.0455 6.95651H0.954545C0.427365 6.95651 0 7.42369 0 7.99999C0 8.57629 0.427365 9.04347 0.954545 9.04347H20.0455C20.5726 9.04347 21 8.57629 21 7.99999C21 7.42369 20.5726 6.95651 20.0455 6.95651Z" fill="black"/>
<path fill-rule="evenodd" clip-rule="evenodd" d="M20.0455 13.913H0.954545C0.427365 13.913 0 14.3802 0 14.9565C0 15.5328 0.427365 16 0.954545 16H20.0455C20.5726 16 21 15.5328 21 14.9565C21 14.3802 20.5726 13.913 20.0455 13.913Z" fill="black"/>
</svg>
